<?xml version="1.0" encoding="UTF-8" standalone="no"?>
<!-- Created with Inkscape (http://www.inkscape.org/) -->

<svg
   xmlns:dc="http://purl.org/dc/elements/1.1/"
   xmlns:cc="http://creativecommons.org/ns#"
   xmlns:rdf="http://www.w3.org/1999/02/22-rdf-syntax-ns#"
   xmlns:svg="http://www.w3.org/2000/svg"
   xmlns="http://www.w3.org/2000/svg"
   xmlns:xlink="http://www.w3.org/1999/xlink"
   xmlns:sodipodi="http://sodipodi.sourceforge.net/DTD/sodipodi-0.dtd"
   xmlns:inkscape="http://www.inkscape.org/namespaces/inkscape"
   width="210mm"
   height="297mm"
   viewBox="0 0 744.09448819 1052.3622047"
   id="svg2"
   version="1.1"
   inkscape:version="0.91 r13725"
   sodipodi:docname="ovpncdl-green.svg">
  <defs
     id="defs4">
    <linearGradient
       inkscape:collect="always"
       id="linearGradient4159">
      <stop
         style="stop-color:#c4c400;stop-opacity:1"
         offset="0"
         id="stop4161" />
      <stop
         style="stop-color:#ffffff;stop-opacity:0"
         offset="1"
         id="stop4163" />
    </linearGradient>
    <inkscape:path-effect
       effect="skeletal"
       id="path-effect4191"
       is_visible="true"
       pattern="m 0.01588113,163.49476 c 0,-2.76 2.23999997,-5 4.99999997,-5 2.76,0 4.9999999,2.24 4.9999999,5 0,2.76 -2.2399999,5 -4.9999999,5 -2.76,0 -4.99999997,-2.24 -4.99999997,-5 z"
       copytype="single_stretched"
       prop_scale="1"
       scale_y_rel="false"
       spacing="0"
       normal_offset="0"
       tang_offset="0"
       prop_units="false"
       vertical_pattern="false"
       fuse_tolerance="0" />
    <inkscape:path-effect
       effect="skeletal"
       id="path-effect4184"
       is_visible="true"
       pattern="m 0.01588113,163.49476 c 0,-2.76 2.23999997,-5 4.99999997,-5 2.76,0 4.9999999,2.24 4.9999999,5 0,2.76 -2.2399999,5 -4.9999999,5 -2.76,0 -4.99999997,-2.24 -4.99999997,-5 z"
       copytype="single_stretched"
       prop_scale="1"
       scale_y_rel="false"
       spacing="0"
       normal_offset="0"
       tang_offset="0"
       prop_units="false"
       vertical_pattern="false"
       fuse_tolerance="0" />
    <inkscape:path-effect
       effect="skeletal"
       id="path-effect4176"
       is_visible="true"
       pattern="m 0.01588113,163.49476 c 0,-2.76 2.23999997,-5 4.99999997,-5 2.76,0 4.9999999,2.24 4.9999999,5 0,2.76 -2.2399999,5 -4.9999999,5 -2.76,0 -4.99999997,-2.24 -4.99999997,-5 z"
       copytype="single_stretched"
       prop_scale="1"
       scale_y_rel="false"
       spacing="0"
       normal_offset="0"
       tang_offset="0"
       prop_units="false"
       vertical_pattern="false"
       fuse_tolerance="0" />
    <inkscape:path-effect
       effect="skeletal"
       id="path-effect4172"
       is_visible="true"
       pattern="m 0.01588113,163.49476 c 0,-2.76 2.23999997,-5 4.99999997,-5 2.76,0 4.9999999,2.24 4.9999999,5 0,2.76 -2.2399999,5 -4.9999999,5 -2.76,0 -4.99999997,-2.24 -4.99999997,-5 z"
       copytype="single_stretched"
       prop_scale="1"
       scale_y_rel="false"
       spacing="0"
       normal_offset="0"
       tang_offset="0"
       prop_units="false"
       vertical_pattern="false"
       fuse_tolerance="0" />
    <inkscape:path-effect
       effect="skeletal"
       id="path-effect4168"
       is_visible="true"
       pattern="m 0.01588113,163.49476 c 0,-2.76 2.23999997,-5 4.99999997,-5 2.76,0 4.9999999,2.24 4.9999999,5 0,2.76 -2.2399999,5 -4.9999999,5 -2.76,0 -4.99999997,-2.24 -4.99999997,-5 z"
       copytype="single_stretched"
       prop_scale="1"
       scale_y_rel="false"
       spacing="0"
       normal_offset="0"
       tang_offset="0"
       prop_units="false"
       vertical_pattern="false"
       fuse_tolerance="0" />
    <inkscape:path-effect
       effect="skeletal"
       id="path-effect4160"
       is_visible="true"
       pattern="m -138.3909,-107.12693 c 0,-2.76 2.24,-5 5,-5 2.76,0 5,2.24 5,5 0,2.76 -2.24,5 -5,5 -2.76,0 -5,-2.24 -5,-5 z"
       copytype="single_stretched"
       prop_scale="1"
       scale_y_rel="false"
       spacing="0"
       normal_offset="0"
       tang_offset="0"
       prop_units="false"
       vertical_pattern="false"
       fuse_tolerance="0" />
    <inkscape:path-effect
       effect="skeletal"
       id="path-effect4156"
       is_visible="true"
       pattern="m -138.3909,-107.12693 c 0,-2.76 2.24,-5 5,-5 2.76,0 5,2.24 5,5 0,2.76 -2.24,5 -5,5 -2.76,0 -5,-2.24 -5,-5 z"
       copytype="single_stretched"
       prop_scale="1"
       scale_y_rel="false"
       spacing="0"
       normal_offset="0"
       tang_offset="0"
       prop_units="false"
       vertical_pattern="false"
       fuse_tolerance="0" />
    <inkscape:path-effect
       effect="skeletal"
       id="path-effect4152"
       is_visible="true"
       pattern="m -138.3909,-107.12693 c 0,-2.76 2.24,-5 5,-5 2.76,0 5,2.24 5,5 0,2.76 -2.24,5 -5,5 -2.76,0 -5,-2.24 -5,-5 z"
       copytype="single_stretched"
       prop_scale="1"
       scale_y_rel="false"
       spacing="0"
       normal_offset="0"
       tang_offset="0"
       prop_units="false"
       vertical_pattern="false"
       fuse_tolerance="0" />
    <inkscape:path-effect
       effect="skeletal"
       id="path-effect4148"
       is_visible="true"
       pattern="m -138.3909,-107.12693 c 0,-2.76 2.24,-5 5,-5 2.76,0 5,2.24 5,5 0,2.76 -2.24,5 -5,5 -2.76,0 -5,-2.24 -5,-5 z"
       copytype="single_stretched"
       prop_scale="1"
       scale_y_rel="false"
       spacing="0"
       normal_offset="0"
       tang_offset="0"
       prop_units="false"
       vertical_pattern="false"
       fuse_tolerance="0" />
    <inkscape:path-effect
       effect="skeletal"
       id="path-effect4144"
       is_visible="true"
       pattern="m -149.50258,-106.11678 c 0,-2.76 2.24,-5 5,-5 2.76,0 5,2.24 5,5 0,2.76 -2.24,5 -5,5 -2.76,0 -5,-2.24 -5,-5 z"
       copytype="single_stretched"
       prop_scale="1"
       scale_y_rel="false"
       spacing="0"
       normal_offset="0"
       tang_offset="0"
       prop_units="false"
       vertical_pattern="false"
       fuse_tolerance="0" />
    <radialGradient
       inkscape:collect="always"
       xlink:href="#linearGradient4159"
       id="radialGradient4165"
       cx="165"
       cy="152.3622"
       fx="165"
       fy="152.3622"
       r="155.5"
       gradientTransform="matrix(1.028784,0,0,1.0290928,0.24916397,135.5717)"
       gradientUnits="userSpaceOnUse" />
  </defs>
  <sodipodi:namedview
     id="base"
     pagecolor="#ffffff"
     bordercolor="#666666"
     borderopacity="1.0"
     inkscape:pageopacity="0.0"
     inkscape:pageshadow="2"
     inkscape:zoom="1.979899"
     inkscape:cx="213.58915"
     inkscape:cy="768.26746"
     inkscape:document-units="px"
     inkscape:current-layer="layer1"
     showgrid="true"
     inkscape:window-width="1604"
     inkscape:window-height="975"
     inkscape:window-x="0"
     inkscape:window-y="0"
     inkscape:window-maximized="1">
    <inkscape:grid
       type="xygrid"
       id="grid4140" />
  </sodipodi:namedview>
  <metadata
     id="metadata7">
    <rdf:RDF>
      <cc:Work
         rdf:about="">
        <dc:format>image/svg+xml</dc:format>
        <dc:type
           rdf:resource="http://purl.org/dc/dcmitype/StillImage" />
        <dc:title />
      </cc:Work>
    </rdf:RDF>
  </metadata>
  <g
     inkscape:label="Ebene 1"
     inkscape:groupmode="layer"
     id="layer1">
    <path
       style="opacity:1;fill:url(#radialGradient4165);fill-opacity:1;fill-rule:evenodd;stroke:#000000;stroke-width:0;stroke-linecap:butt;stroke-linejoin:miter;stroke-opacity:1;stroke-miterlimit:4;stroke-dasharray:none"
       d="m 10.537004,132.91209 318.923006,0 0,318.90888 -318.923006,0 0,-318.90888 z"
       id="path4164"
       inkscape:connector-curvature="0"
       inkscape:export-xdpi="4.52"
       inkscape:export-ydpi="4.52" />
    <path
       style="fill:#000000;fill-rule:evenodd;stroke:none;stroke-width:1px;stroke-linecap:butt;stroke-linejoin:miter;stroke-opacity:1"
       d="m 247.0228,132.91256 c 3.45032,1.56082 -29.34233,72.14003 -70.76499,157.77569 -0.002,0.003 -0.23382,0.4834 -0.23549,0.48685 83.16399,-45.65635 151.7042,-81.89552 153.43728,-78.53555 1.72476,3.34385 -68.12231,38.52592 -155.70076,80.91843 -0.001,0.003 0.21548,-0.51027 0.21414,-0.5071 37.94667,-89.86031 69.61595,-161.6917 73.04982,-160.13832 z"
       id="path4166"
       inkscape:path-effect="#path-effect4168"
       inkscape:original-d="m 247.0228,132.91256 -72.13222,159.45398 154.56902,-79.72699 0,0"
       inkscape:connector-curvature="0"
       inkscape:export-xdpi="18.000488"
       inkscape:export-ydpi="18.000488" />
    <path
       style="fill:#000000;fill-rule:evenodd;stroke:none;stroke-width:1px;stroke-linecap:butt;stroke-linejoin:miter;stroke-opacity:1"
       d="m 174.89058,450.67 c -3.398,0 -3.40861,-69.59574 -1.54588,-156.01441 0,0 0,-1e-5 0,-1e-5 -2.99094,1.30181 -6.00915,2.61479 -9.04191,3.93302 -83.657097,36.36266 -152.947849,64.86264 -154.285829,61.6115 -1.3306166,-3.23325 68.818353,-32.16039 156.996419,-66.49417 3.16261,-1.23142 6.30795,-2.455 9.42308,-3.66609 0,0 0,10e-6 0,10e-6 1.88341,90.108 1.83144,160.63015 -1.54588,160.63015 z"
       id="path4170"
       inkscape:path-effect="#path-effect4172"
       inkscape:original-d="m 174.89058,450.67 0,0 0,-158.32229 -164.873619,67.85239 0,0"
       inkscape:connector-curvature="0"
       inkscape:export-xdpi="18.000488"
       inkscape:export-ydpi="18.000488" />
    <path
       style="fill:#000000;fill-rule:evenodd;stroke:none;stroke-width:1px;stroke-linecap:butt;stroke-linejoin:miter;stroke-opacity:1"
       d="m 51.235368,132.91256 c 2.203919,-1.70912 56.961702,65.38563 122.038192,149.41542 1.66634,2.15167 3.32369,4.29404 4.97137,6.4262 0,0 1e-5,10e-6 1e-5,10e-6 85.37784,56.66184 152.71671,103.85351 151.21466,106.11846 -1.50212,2.26504 -71.44965,-41.5883 -157.92335,-98.89374 0,0 -2e-5,-10e-6 -2e-5,-10e-6 -1.66747,-2.14274 -3.3428,-4.29787 -5.02523,-6.46447 C 100.59008,204.62281 49.03163,134.62154 51.235368,132.91256 Z"
       id="path4174"
       inkscape:path-effect="#path-effect4176"
       inkscape:original-d="m 51.235368,132.91256 0,0 123.655212,159.45398 154.56902,102.50611 0,0"
       inkscape:connector-curvature="0"
       inkscape:export-xdpi="18.000488"
       inkscape:export-ydpi="18.000488" />
    <path
       style="fill:#000000;fill-rule:evenodd;stroke:none;stroke-width:1px;stroke-linecap:butt;stroke-linejoin:miter;stroke-opacity:1"
       d="m 174.89058,303.7561 c 2.19154,1.67773 -21.42036,36.20579 -52.70513,77.07156 -31.284772,40.86578 -58.453946,72.67057 -60.645481,70.99284 -2.191535,-1.67773 21.420363,-36.20579 52.705131,-77.07156 31.28477,-40.86578 58.45394,-72.67057 60.64548,-70.99284 z"
       id="path4182"
       inkscape:path-effect="#path-effect4184"
       inkscape:original-d="m 174.89058,303.7561 -113.350611,148.0644 0,0"
       inkscape:connector-curvature="0"
       inkscape:export-xdpi="18.000488"
       inkscape:export-ydpi="18.000488" />
    <path
       style="fill:#000000;fill-rule:evenodd;stroke:none;stroke-width:1px;stroke-linecap:butt;stroke-linejoin:miter;stroke-opacity:1"
       d="m 123.36758,313.3448 c 0.58243,-0.13331 4.71945,15.60165 11.11688,44.00176 11.4718,-0.23325 24.58763,-0.51694 39.57287,-0.87341 11.38996,-12.82252 25.29673,-28.46748 39.63457,-44.59764 6.2382,-16.88426 12.97606,-34.96339 20.22184,-54.25258 -9.4771,-10.07255 -19.26738,-20.46989 -29.4497,-31.27565 -25.07248,-0.0215 -51.47729,-0.0795 -79.2528,-0.17277 -15.40406,34.21571 -32.140974,71.3749 -49.34014,109.53368 9.655156,17.28493 19.587307,35.06854 29.63483,53.06345 22.49654,7.01611 45.44964,14.18401 68.85134,21.50089 29.1406,-17.73084 59.02305,-35.89736 89.54136,-54.43451 5.29094,-32.0464 10.69142,-64.69221 16.18078,-97.80554 1.24022,-7.48129 2.47691,-14.93786 3.70995,-22.36889 -16.5025,-21.82807 -32.82654,-43.43244 -48.86119,-64.6626 -51.69894,3.59819 -102.23985,7.09348 -150.370334,10.40775 -21.569507,63.09249 -41.756723,121.95184 -60.542701,176.49584 17.44628,26.8543 34.006185,52.37926 49.571523,76.40782 36.957762,4.06459 70.622992,7.82717 100.834692,11.26875 90.23353,-41.5384 144.2569,-65.7234 144.73366,-64.70492 0.47696,1.01891 -52.76125,27.04295 -143.7952,70.35796 C 144.10987,447.9626 108.97597,444.21055 70.102482,439.99244 53.412257,414.69727 35.548045,387.58237 16.627993,358.82694 35.952539,302.36731 57.02266,241.05736 79.740508,175.15512 c 50.667522,-3.87995 104.052172,-7.9521 158.767702,-12.10273 17.77472,23.08393 35.88399,46.61149 54.18481,70.40028 -1.31601,7.88215 -2.63725,15.79209 -3.96347,23.72836 -5.87015,35.12782 -11.66883,69.75985 -17.36418,103.71247 -32.735,19.84544 -64.77086,39.25141 -95.94146,58.11787 -25.70476,-8.0079 -50.85468,-15.85163 -75.41311,-23.5201 C 89.04172,375.22682 78.26787,355.31725 67.818041,336.00236 86.659888,295.4303 104.82751,256.33824 121.52392,220.43127 c 30.243,-0.0933 58.77577,-0.15123 85.62082,-0.17277 11.30604,12.66516 22.05683,24.70353 32.3779,36.25579 -7.49157,20.9531 -14.48762,40.37624 -20.99658,58.2998 -15.8476,16.83399 -30.45872,32.34985 -42.80223,45.44428 -16.6287,-0.35688 -30.75544,-0.63975 -42.86393,-0.87341 -6.94861,-29.90842 -10.07464,-45.90688 -9.49232,-46.04016 z"
       id="path4189"
       inkscape:path-effect="#path-effect4191"
       inkscape:original-d="m 123.36758,313.3448 10.3046,45.02096 41.2184,0 41.2184,-45.02096 20.60921,-56.27619 -30.9138,-33.76572 -82.43681,0 -51.52301,112.55238 30.9138,56.27619 72.13221,22.51049 92.74142,-56.27619 20.60919,-123.80763 -51.523,-67.53144 -154.569018,11.25524 -61.827608,180.08383 51.523006,78.78666 103.04601,11.25525 144.26443,-67.53144"
       inkscape:connector-curvature="0"
       inkscape:export-xdpi="18.000488"
       inkscape:export-ydpi="18.000488" />
  </g>
</svg>
